<svg xmlns="http://www.w3.org/2000/svg" xml:space="preserve" viewBox="0 0 512.005 512.005">
  <path d="M469.336.005H42.669C19.519-.361.437 18.073.003 41.222v352.767c.434 23.149 19.517 41.583 42.667 41.217h136.533v25.6H145.07c-18.843.02-34.113 15.29-34.133 34.133v8.533a8.53 8.53 0 0 0 8.534 8.534h273.067a8.53 8.53 0 0 0 8.534-8.534v-8.533c-.02-18.843-15.29-34.113-34.133-34.133h-34.133v-25.6h136.533c23.15.366 42.232-18.068 42.667-41.217V41.222c-.438-23.149-19.52-41.583-42.67-41.217zm-102.4 477.867c9.421.011 17.056 7.645 17.067 17.067h-256c.011-9.421 7.645-17.056 17.067-17.067h221.866zm-170.667-17.067v-25.6h119.467v25.6H196.269zm298.667-66.816c-.427 13.726-11.872 24.523-25.6 24.15H42.669c-13.728.373-25.173-10.424-25.6-24.15v-18.517h477.867v18.517zm0-35.584H17.069V41.222c.427-13.726 11.872-24.523 25.6-24.15h426.667c13.728-.373 25.173 10.424 25.6 24.15v317.183z"/>
  <path d="m116.336 238.939 279.692-.012c22.518-1.118 39.958-20.123 39.142-42.654l-.009-84.946c.941-22.804-16.756-42.065-39.558-43.054l-279.692.012c-22.518 1.118-39.958 20.123-39.142 42.654l.008 84.946c-.94 22.803 16.757 42.065 39.559 43.054zM93.827 110.551c-.615-13.131 9.392-24.34 22.509-25.213l278.842-.012c13.402.745 23.664 12.21 22.925 25.612l.009 85.721c.614 13.131-9.392 24.339-22.508 25.213l-278.842.012c-13.403-.744-23.666-12.21-22.925-25.612l-.01-85.721z"/>
  <path d="M145.036 179.205h34.133v17.067c0 4.713 3.82 8.533 8.533 8.533s8.533-3.82 8.533-8.533v-17.067h8.533c4.713 0 8.533-3.82 8.533-8.533s-3.82-8.533-8.533-8.533h-8.533v-8.533a8.533 8.533 0 0 0-17.066 0v8.533h-19.425l26.833-46.967a8.532 8.532 0 0 0-3.184-11.626 8.532 8.532 0 0 0-11.633 3.16l-34.133 59.733a8.53 8.53 0 0 0 7.409 12.766zm162.133 0h34.133v17.067c0 4.713 3.82 8.533 8.533 8.533s8.533-3.82 8.533-8.533v-17.067h8.533a8.533 8.533 0 0 0 0-17.066h-8.533v-8.533a8.533 8.533 0 0 0-17.066 0v8.533h-19.425l26.833-46.967a8.532 8.532 0 0 0-3.184-11.626 8.532 8.532 0 0 0-11.633 3.16l-34.133 59.733a8.53 8.53 0 0 0 7.409 12.766zm-59.733 25.6h17.067c14.132-.015 25.585-11.468 25.6-25.6v-51.2c-.015-14.132-11.468-25.585-25.6-25.6h-17.067c-14.132.015-25.585 11.468-25.6 25.6v51.2c.015 14.132 11.468 25.585 25.6 25.6zm-8.533-76.8a8.54 8.54 0 0 1 8.533-8.533h17.067a8.54 8.54 0 0 1 8.533 8.533v51.2a8.54 8.54 0 0 1-8.533 8.533h-17.067a8.54 8.54 0 0 1-8.533-8.533v-51.2zm170.7 136.534h-307.2c-14.132.015-25.585 11.468-25.6 25.6v17.067c.015 14.132 11.468 25.585 25.6 25.6h307.2c14.132-.015 25.585-11.468 25.6-25.6v-17.067c-.016-14.132-11.468-25.585-25.6-25.6zm-307.2 51.2a8.54 8.54 0 0 1-8.533-8.533v-17.067a8.54 8.54 0 0 1 8.533-8.533h26.723l-22.756 34.133h-3.967zm24.477 0 22.756-34.133h22.156l-22.756 34.133H126.88zm42.666 0 22.756-34.133h22.156l-22.756 34.133h-22.156zm42.667 0 22.756-34.133h22.156l-22.756 34.133h-22.156zm42.667 0 22.756-34.133h22.156l-22.756 34.133H254.88zm42.666 0 22.756-34.133h22.156l-22.756 34.133h-22.156zm42.667 0 22.756-34.133h22.156l-22.756 34.133h-22.156zm77.923-8.534a8.54 8.54 0 0 1-8.533 8.533H382.88l22.756-34.133h3.967a8.54 8.54 0 0 1 8.533 8.533v17.067z"/>
</svg>